Coordinates
version=1
nRows=12
nColumns=28
inDegrees=yes

Units are S.I. units (second, meters, Newtons, ...)
Angles are in degrees.

endheader
time	pelvis_tilt	pelvis_list	pelvis_rotation	pelvis_tx	pelvis_ty	pelvis_tz	hip_flexion_r	hip_adduction_r	hip_rotation_r	knee_angle_r	ankle_angle_r	subtalar_angle_r	mtp_angle_r	hip_flexion_l	hip_adduction_l	hip_rotation_l	knee_angle_l	socket_flexion	socket_adduction	socket_rotation	socket_tx	socket_ty	socket_tz	foot_flex	lumbar_extension	lumbar_bending	lumbar_rotation
      0.00000000	      0.53360522	     -6.45879462	     -7.67147146	     -0.91124771	      0.99024521	      0.31434229	    -26.37271878	      7.79772511	      2.75614833	     -3.95432296	     13.22441150	      1.76301741	      4.56477921	     24.74565007	     -8.79779648	      5.40869667	     -1.76471898	      1.45887355	     -1.13208341	      1.64233268	     -0.01523913	     -0.00097223	      0.00461508	     -0.48330623	    -12.32361668	      4.58070927	     10.57576408
      0.00416667	      0.46450922	     -6.48584031	     -7.65762568	     -0.90550019	      0.98940556	      0.31406589	    -26.51285207	      7.79617927	      2.82037279	     -4.14748675	     13.22463259	      1.71824197	      4.57520550	     24.65947096	     -8.76379426	      5.41172141	     -1.81771303	      1.49997120	     -1.12975916	      1.70227959	     -0.01434322	     -0.00137575	      0.00413002	     -0.57291401	    -12.16496436	      4.57116110	     10.59201256
      0.00833333	     -0.11746624	     -6.45715712	     -8.48237851	     -0.89936692	      0.98856081	      0.31493846	    -25.98718793	      7.51977898	      4.13273762	     -4.71397506	     13.12804125	      0.12268835	      5.18853029	     24.97246513	     -9.02505772	      3.37362342	     -1.85585184	      1.47899364	     -1.25713910	      3.32127097	     -0.01210241	     -0.00175471	      0.00449335	     -1.09573532	    -11.45622106	      4.43649439	     11.83598971
      0.01250000	     -0.14265072	     -6.56858223	     -8.46246356	     -0.89347291	      0.98786360	      0.31450246	    -26.03490267	      7.59120373	      4.09169307	     -5.19538670	     12.81599123	      0.02129533	      5.17895150	     24.77321449	     -8.99310373	      3.38281918	     -1.87143743	      1.48916244	     -1.37266349	      3.59610894	     -0.01152151	     -0.00226815	      0.00495330	     -1.48869183	    -11.45060807	      4.54332421	     11.78274778
      0.01666667	     -0.19561561	     -6.60779929	     -8.42305643	     -0.88711830	      0.98701749	      0.31410684	    -26.19091363	      7.59499128	      4.14254883	     -5.43237701	     12.75778889	      0.01307879	      5.17950718	     24.65941014	     -8.93287690	      3.39992842	     -1.94759342	      1.55209357	     -1.37078591	      3.64466668	     -0.01050580	     -0.00285066	      0.00456726	     -1.56407221	    -11.30932086	      4.56229418	     11.77748366
      0.02083333	     -0.25543843	     -6.73257928	     -8.53447843	     -0.88096626	      0.98647687	      0.31352612	    -26.02906657	      7.60774510	      4.01097372	     -6.25382315	     12.33317928	     -0.19912257	      5.21449868	     24.30213895	     -8.82579629	      3.19545510	     -1.86396861	      1.48395954	     -1.62841352	      4.00332273	     -0.01092755	     -0.00342645	      0.00649080	     -2.13888402	    -11.32948595	      4.74385000	     11.74979291
      0.02500000	     -0.31645245	     -6.75762965	     -8.57364828	     -0.87453892	      0.98580094	      0.31323789	    -26.01433963	      7.56964361	      4.05196135	     -6.81374033	     12.10991477	     -0.27080356	      5.26927808	     24.03490628	     -8.73823338	      3.17015557	     -1.85084521	      1.47079450	     -1.76779996	      4.33841389	     -0.01078854	     -0.00400640	      0.00709984	     -2.45734034	    -11.22056278	      4.74225766	     11.75881100
      0.02916667	     -0.37961088	     -6.78340929	     -8.65116961	     -0.86800628	      0.98521022	      0.31284579	    -25.94151170	      7.50301680	      4.04851470	     -7.46511031	     11.82796975	     -0.36192573	      5.33875695	     23.75626043	     -8.60863279	      3.02289955	     -1.83842903	      1.46108300	     -1.92337003	      4.61489306	     -0.01059288	     -0.00464668	      0.00806329	     -2.81009869	    -11.12392242	      4.76317884	     11.78691312
      0.03333333	     -0.43225903	     -6.80043049	     -8.58302126	     -0.86118520	      0.98446233	      0.31238306	    -26.07522451	      7.48340273	      4.13203296	     -7.73575355	     11.76364864	     -0.35817695	      5.34503366	     23.61223452	     -8.53958077	      3.04743438	     -1.93797022	      1.54815997	     -1.91268081	      4.67925449	     -0.00979191	     -0.00547363	      0.00733236	     -2.87929963	    -10.96041756	      4.76065140	     11.79000327
      0.03750000	     -0.54238895	     -6.31330381	     -9.14930384	     -0.85403279	      0.98440903	      0.31269812	    -25.62094041	      6.69938040	      3.96647392	     -8.91181607	     11.25628840	     -0.31757745	      6.55775270	     23.10661558	     -7.86290575	      1.38695102	     -1.80426132	      1.41899471	     -2.42310685	      5.92883217	     -0.00989640	     -0.00547396	      0.01103913	     -3.35965159	    -10.68726300	      4.09343183	     12.40624420
      0.04166667	     -0.50653300	     -6.41035282	     -9.10718912	     -0.84756391	      0.98400624	      0.31209575	    -25.60407575	      6.72396131	      3.92069005	     -9.61931712	     10.79711326	     -0.30454224	      6.66583770	     22.88403121	     -7.79737933	      1.37825361	     -1.89169181	      1.49037626	     -2.50075566	      6.21434577	     -0.00874700	     -0.00627337	      0.01127187	     -3.72287782	    -10.75584606	      4.20397706	     12.33031950
      0.04583333	     -0.53607065	     -6.41734813	     -9.11668733	     -0.84087014	      0.98360424	      0.31168886	    -25.50048077	      6.65625735	      3.88194010	    -10.34495466	     10.36892877	     -0.35036731	      6.80311226	     22.61991046	     -7.69079774	      1.31480286	     -1.93362587	      1.52525752	     -2.57327478	      6.49480048	     -0.00837799	     -0.00706557	      0.01150671	     -4.00237115	    -10.69256527	      4.19046514	     12.26301609
